<svg xmlns="http://www.w3.org/2000/svg" width="60" height="60"><path d="M17.414 13.507a2.263 2.263 0 010 3.038L4.828 30.055l12.591 13.51a2.264 2.264 0 01-.051 2.982 1.905 1.905 0 01-2.778.055l-14-15.031a2.263 2.263 0 010-3.038l14-15.031a1.907 1.907 0 012.83 0zm25.167 0a2.263 2.263 0 000 3.038l12.591 13.51-12.591 13.51a2.264 2.264 0 00.051 2.982 1.905 1.905 0 002.778.055l14-15.031a2.263 2.263 0 000-3.038l-14-15.031a1.907 1.907 0 00-2.83 0zm-4-13.417a2.182 2.182 0 011.326 2.684l-16 55.822a1.972 1.972 0 01-2.466 1.308 2.174 2.174 0 01-1.356-2.569l16-55.822a1.981 1.981 0 012.5-1.418z" fill="#fff" fill-rule="evenodd"/></svg>