<svg xmlns="http://www.w3.org/2000/svg" width="60" height="60"><path d="M14.75 15.026c0-.154.05-.282.25-.282 1.575-.077 3.825-.128 6.25-.128 6.75 0 9.7 3.795 9.7 8.667 0 6.359-4.55 9.077-10.05 9.077-.925 0-1.25-.051-1.9-.051v9.741c0 .205-.075.282-.275.282h-3.7c-.2 0-.275-.077-.275-.282zM19 28.308c.55.051 1 .051 1.975.051 2.85 0 5.575-1.026 5.575-5 0-3.179-1.95-4.795-5.225-4.795-.975 0-1.9.051-2.325.077zm21.8-2.974c-1.925 0-2.575 1-2.575 1.821 0 .9.45 1.538 3.025 2.9 3.825 1.9 5.025 3.718 5.025 6.41 0 4-2.975 6.154-7 6.154a10.84 10.84 0 01-5.075-1.081.4.4 0 01-.2-.41v-3.692c0-.256.125-.333.275-.205a9.21 9.21 0 005 1.487c1.925 0 2.725-.821 2.725-1.949 0-.9-.55-1.692-3.025-3.026-3.475-1.692-4.9-3.436-4.9-6.308 0-3.231 2.45-5.9 6.725-5.9a11.793 11.793 0 014.45.692.559.559 0 01.25.487v3.436c0 .205-.125.333-.35.256a8.914 8.914 0 00-4.35-1.077zM10.625 0A10.755 10.755 0 000 10.897v38.206a10.755 10.755 0 0010.625 10.9h38.75A10.755 10.755 0 0060 49.103V10.897A10.755 10.755 0 0049.375 0zm.95 2.564H48.4a9.194 9.194 0 019.075 9.308v36.231a9.416 9.416 0 01-2.636 6.594 8.948 8.948 0 01-6.414 2.74h-36.85A9.209 9.209 0 012.5 48.128V11.872a9.209 9.209 0 019.075-9.308z" fill="#fff"/></svg>