<svg xmlns="http://www.w3.org/2000/svg" width="60" height="60"><path d="M59.976 42.459a8.762 8.762 0 00-2.437-5.525c.335.347.618.642-.007-.007-.842-.875-.4-.412 0 0-3.34-3.46-7.7-2.691-11.337-.769a14.547 14.547 0 01-.682-9.877c.108-.478.035-.742-.307-.955a3.416 3.416 0 00-2.862.08.855.855 0 00-.562.747c-.6 4.134-2.462 7.918-4.082 11.4a14.361 14.361 0 01-.283-8.953c.093-.4.05-.618-.227-.832-.85-.64-2.157-.325-3.023.046-1 .424-2.5 7.6-2.973 9.026-1 2.972-1.885 7.615-3.585 9.971-1.442-2.693 2.64-8.781 1.275-11.225a1.017 1.017 0 00-1.827-.1 9.851 9.851 0 00-.037-3.249c-.243-1.156-.863-1.821-1.768-1.789-2.108.09-3.967 2.354-5.232 4.5-1.205 2.063-4.38 3.346-6.088 4.589C11 35.814 4.645 31.874 4.48 25.54c-.18-7.133 5.662-11.974 9.562-14.866 5.072-3.767 12.887-8.456 18.649-4.335 1.53 1.093 2.145 3.438 1.723 5.685-1.1 5.857-5.532 9.765-9.387 11.559a12.139 12.139 0 01-5.988 1.367c-2.69-.228-4.785-2.594-5.072-2.742-.24-.065-.222.385-.158.625 2.791 10.641 16.923 2.841 20.62-2.622a18.83 18.83 0 003.322-9.186 9.15 9.15 0 00-3.634-8.851c-9.132-6.153-21.755 1.9-28.658 10.107-3 3.564-6.745 9.225-5.025 15.162 1.866 6.444 7.586 9.748 11.308 13.69-3.012 2.177-6.78 4.429-8.733 8.512a9.959 9.959 0 00-.682 7.494c1.473 4.7 6.83 2.662 9.09.592a13.414 13.414 0 004.067-7.709 17.325 17.325 0 00-.452-8.439l3.35-2.466c-.9 3.935-1.3 8.863.572 12.42a1.964 1.964 0 003.5.053 36.335 36.335 0 002.4-6.342 16.55 16.55 0 00.162 4.8c.435 1.6 1.422 1.925 2.437.912 3.108-3.1 5.085-11.7 6.617-16.716a36.6 36.6 0 001.635 6.2 1.2 1.2 0 01-.093 1.227c-1.135 1.821-3.847 4.854-4.11 7.312a1.121 1.121 0 00.667 1.256c1.825.531 3.848-.432 5.33-1.889a6.64 6.64 0 001.67-6.054c-.537-3.54 1.288-7.5 3.023-10.4a23.519 23.519 0 001.657 6.24c-1.532 1.956-3.818 4.732-3.49 8 .115 1.171.837 1.927 1.7 1.661a7.769 7.769 0 004.613-3.775c1.057-1.85.678-3.869.218-5.9a9.741 9.741 0 018.418 0 6.116 6.116 0 013.077 3.549 4.9 4.9 0 01-1.178 5.557c-.385.359-.652.655-.522.807s.575.361 1.557-.538a5.513 5.513 0 001.737-3.7 9.184 9.184 0 000-1.321zm-46.739 4.306a11.481 11.481 0 01-2.715 7.009 5.516 5.516 0 01-3.108 2.06c-1.1.155-1.963-.25-2.037-1.915-.207-4.686 4.8-9.278 7.573-10.66a13.615 13.615 0 01.285 3.51zm12.082-12.35c-.457 3.8-1.738 10.628-3.787 13.353-.277.366-.54.344-.68-.131-1.212-4.1.43-12.558 3.877-13.862.405-.153.657.1.59.642zm8.24 13.938q1.48-2.291 2.962-4.589c.121 1.71-2.059 5.11-2.962 4.589zm9.458-3.016c-.275.218-.893.429-.917.143-.173-2.061 1.385-4.24 2.352-5.261a5.019 5.019 0 01-1.435 5.12z" fill="#fff"/></svg>