<svg xmlns="http://www.w3.org/2000/svg" viewBox="0 0 512 512" style="width:256px;height:256px"><path d="M210.674 488.473H512c0-66.47-35.066-115.758-85.798-138.104v-25.563c26.193-16.601 47.231-41.746 58.339-73.262l13.133-37.236c26.29-74.57-12.842-156.319-87.404-182.6-71.786-25.306-150.212 10.035-179.406 79.256l-45.859 31.396a7.14 7.14 0 00-2.452 6.026 7.14 7.14 0 003.453 5.518l23.483 16.787c-2.388 6.784-3.969 11.269-3.969 11.269l102.061 71.746-73.328 35.098c16.44 22.369 39.535 40.213 67.705 50.143 2.194.775 4.388 1.484 6.598 2.146v4.59c-57.161 19.497-97.882 71.165-97.882 142.79zm-68.269-301.714L11.868 113.933a3.992 3.992 0 00-3.218-.25 3.868 3.868 0 00-2.292 2.259L.252 132.076c-.71 1.871.129 3.961 1.92 4.856l132.997 65.074a3.914 3.914 0 001.702.396 3.83 3.83 0 001.34-.242 3.863 3.863 0 002.21-2.09l3.654-8.381a3.88 3.88 0 00-1.67-4.93zm-1.985 83.887a3.836 3.836 0 00-2.21-2.09 3.83 3.83 0 00-1.34-.242c-.581 0-1.17.138-1.702.396L2.172 333.793a3.873 3.873 0 00-1.92 4.848l6.106 16.126a3.824 3.824 0 002.292 2.258c.427.161.879.242 1.331.242.653 0 1.298-.161 1.887-.5l130.537-72.819a3.867 3.867 0 001.67-4.921l-3.655-8.381z" fill="#4b4b4b"/></svg>