<svg version="1.1" id="_x32_" xmlns="http://www.w3.org/2000/svg" x="0" y="0" viewBox="0 0 512 512" style="width:256px;height:256px" xml:space="preserve" opacity="1"><style>.st0{fill:#4b4b4b}</style><path class="st0" d="M47.294 422.846c-10.908-10.924-17.615-25.87-17.633-42.462v-61.795H0v61.795c.017 49.545 40.23 89.739 89.765 89.774h40.532v-29.67H89.765c-16.601-.008-31.529-6.717-42.471-17.642zm38.637-186.932c21.636 0 39.144-17.508 39.144-39.154 0-21.609-17.507-39.153-39.144-39.153-21.619 0-39.154 17.544-39.154 39.153 0 21.646 17.535 39.154 39.154 39.154z" fill="#4b4b4b"/><path class="st0" d="M179.165 369.308h-54.927V287.55c0-21.165-17.134-38.318-38.308-38.318-21.147 0-38.299 17.152-38.299 38.318v93.146c0 21.155 17.143 38.308 38.299 38.308 2.873 0 70.024-.195 70.024-.195l3.674 56.688c.258 11.61 9.884 20.818 21.494 20.568 11.628-.258 20.826-9.884 20.56-21.494l2.233-80.512c0-13.684-11.076-24.751-24.75-24.751zm303.174-50.719v61.795c-.017 16.592-6.725 31.538-17.632 42.462-10.943 10.925-25.871 17.634-42.462 17.642h-40.541v29.67h40.541c49.526-.036 89.73-40.23 89.756-89.774v-61.795h-29.662zm-56.27-82.675c21.618 0 39.153-17.508 39.153-39.154 0-21.609-17.535-39.153-39.153-39.153-21.636 0-39.145 17.544-39.145 39.153 0 21.646 17.509 39.154 39.145 39.154z" fill="#4b4b4b"/><path class="st0" d="M464.378 380.695v-93.146c0-21.165-17.17-38.318-38.308-38.318-21.173 0-38.308 17.152-38.308 38.318v81.758h-54.927c-13.674 0-24.75 11.067-24.75 24.75l2.233 80.512c-.267 11.61 8.932 21.236 20.56 21.494 11.61.25 21.235-8.959 21.493-20.568l3.675-56.688s67.151.195 70.024.195c21.154.001 38.308-17.151 38.308-38.307z" fill="#4b4b4b"/><path class="st0" fill="#4b4b4b" d="M153.651 318.963h212.384v36.146H153.651zm90.396 55.548h24.714v87.497h-24.714zM359.59 159.404c0 7.286-2.353 14.137-6.677 20.294-4.319 6.165-10.671 11.556-18.464 15.56l-5.686 2.918 7.376 16.486c-22.37-3.87-43.13-11.148-53.615-15.222l-.208-.089-.222-.062c-14.061-4.422-25.048-13.086-30.626-23.335l-11.85 6.486c7.575 13.753 21.32 24.198 38.028 29.554v.018c12.976 5.026 40.252 14.581 68.908 17.802l11.712 1.29-12.108-27.081c7.109-4.475 13.211-10.026 17.793-16.557 5.743-8.149 9.146-17.792 9.133-28.06.013-12.775-5.266-24.554-13.772-33.77-8.514-9.252-20.249-16.138-33.713-19.822l-3.555 13.015c11.254 3.052 20.782 8.781 27.33 15.934 6.582 7.186 10.216 15.576 10.216 24.641z"/><path class="st0" d="M161.724 156.362l-16.228 36.28 11.722-1.299c40.461-4.52 79.209-18.078 97.602-25.204 17.478-5.596 32.561-15.142 43.419-27.552 10.952-12.49 17.579-28.015 17.571-44.803.008-10.978-2.834-21.458-7.865-30.862-7.548-14.118-19.968-25.844-35.337-34.046-15.356-8.211-33.713-12.944-53.428-12.944-26.258.018-50.153 8.389-67.742 22.286-8.786 6.948-15.987 15.293-21.031 24.705-5.022 9.404-7.851 19.884-7.851 30.862-.014 14.003 4.626 27.162 12.499 38.38 6.758 9.588 15.905 17.791 26.669 24.197zm-19.408-87.079c6.081-11.406 16.464-21.396 29.799-28.522 13.318-7.117 29.536-11.352 47.067-11.334 23.372-.018 44.411 7.508 59.384 19.358 7.477 5.925 13.429 12.891 17.486 20.498 4.066 7.615 6.268 15.844 6.268 24.5-.014 13.194-5.115 25.497-14.225 35.924-9.097 10.409-22.206 18.825-37.748 23.709l-.196.063-.208.088c-15.929 6.175-48.139 17.437-82.368 22.758l11.605-25.934-5.698-2.918c-11.498-5.89-20.911-13.87-27.379-23.087-6.476-9.226-10.053-19.572-10.066-30.604.011-8.655 2.201-16.883 6.279-24.499z" fill="#4b4b4b"/></svg>