<svg xmlns="http://www.w3.org/2000/svg" viewBox="0 0 512 512" style="width:256px;height:256px"><path d="M462.277 306.305v-84.362h-9.334c-39.53.008-74.723 6.847-103.747 15.651-5.69-11.507-12.261-23.387-17.891-33.162 24.955-21.296 40.8-52.956 40.8-88.327C372.104 51.978 320.119 0 256 0c-64.12 0-116.105 51.978-116.105 116.105 0 35.372 15.845 67.032 40.8 88.327-5.63 9.775-12.201 21.655-17.891 33.162-29.024-8.804-64.217-15.644-103.74-15.651H49.73v84.362c-28.174.553-38.941 23.782-38.941 52.374S21.556 410.5 49.73 411.045v67.152l9.005.314.262.008c2.8.112 28.479 1.21 63.261 5.868 34.774 4.645 78.672 12.896 117.657 27.053l1.546.56h29.076l1.546-.56c40.248-14.62 85.721-22.931 121.003-27.494 17.637-2.285 32.735-3.651 43.399-4.436a578.28 578.28 0 0112.425-.799c1.434-.074 2.538-.127 3.27-.157.373-.014.642-.03.821-.036l.269-.008 9.005-.314v-67.152c28.166-.545 38.933-23.774 38.933-52.366s-10.766-51.82-38.931-52.373zM230.746 488.628c-37.895-12.052-77.694-19.063-109.429-23.185-23.402-3.039-42.398-4.48-52.927-5.115v-52.314c20.251-7.243 34.745-26.59 34.745-49.334 0-22.745-14.494-42.092-34.745-49.342v-68.592c48.618 1.396 90.06 13.493 119.809 25.604 15.808 6.436 28.307 12.866 36.797 17.66a205.417 205.417 0 015.75 3.345v201.273zm38.067 4.189c-.5.171-1 .343-1.5.522h-22.625c-.501-.179-1.001-.351-1.501-.522V293.47h25.626v199.347zm174.796-183.48c-20.25 7.25-34.737 26.597-34.737 49.342 0 22.744 14.486 42.092 34.737 49.334v52.314c-10.529.635-29.524 2.076-52.926 5.115-31.735 4.122-71.527 11.133-109.429 23.185V287.354c8.116-4.876 22.998-13.097 43.294-21.304 29.689-12.014 70.855-23.924 119.062-25.306v68.593z" fill="#4b4b4b"/></svg>