<svg xmlns="http://www.w3.org/2000/svg" width="60" height="60"><path d="M29.998 0a30 30 0 1030 30 30.031 30.031 0 00-30-30zM3.022 30a26.778 26.778 0 012.335-10.972l12.87 35.25A27 27 0 013.023 29.999zm26.976 26.975a26.868 26.868 0 01-7.621-1.1l8.093-23.517 8.285 22.718a3.352 3.352 0 00.194.375 26.981 26.981 0 01-8.951 1.524zm3.714-39.616c1.621-.084 3.085-.255 3.085-.255a1.117 1.117 0 00-.169-2.226s-4.366.339-7.186.339c-2.649 0-7.1-.339-7.1-.339a1.117 1.117 0 00-.169 2.226s1.38.169 2.83.255l4.2 11.517-5.9 17.7-9.827-29.217c1.621-.084 3.085-.255 3.085-.255a1.117 1.117 0 00-.169-2.226s-4.366.339-7.186.339c-.508 0-1.1-.012-1.741-.036a26.972 26.972 0 0140.751-5.082 3.435 3.435 0 00-.351-.024 4.669 4.669 0 00-4.525 4.79c0 2.226 1.282 4.1 2.649 6.326a14.155 14.155 0 012.226 7.439c0 2.311-.883 4.984-2.056 8.723l-2.685 8.984-9.761-28.981zm9.846 35.952l8.237-23.819a25.513 25.513 0 002.056-9.665 19.926 19.926 0 00-.181-2.77 26.974 26.974 0 01-10.112 36.252z" fill="#fff"/></svg>