<svg xmlns="http://www.w3.org/2000/svg" width="60" height="60"><path d="M49.375 0h-38.75A10.755 10.755 0 000 10.897v38.206a10.755 10.755 0 0010.625 10.9h38.75A10.755 10.755 0 0060 49.103V10.897A10.755 10.755 0 0049.375 0zm8.1 48.1a9.413 9.413 0 01-2.635 6.595 8.944 8.944 0 01-6.415 2.739h-36.85A9.209 9.209 0 012.5 48.128V11.872a9.209 9.209 0 019.075-9.308H48.4a9.194 9.194 0 019.075 9.308zm-33.75-20.023l7 13.795c.125.205.05.41-.15.41h-4.35a.49.49 0 01-.525-.332c-1.6-3.385-3.225-6.769-4.9-10.41h-.05c-1.5 3.434-3.15 7.05-4.75 10.434a.479.479 0 01-.45.282h-4.125c-.25 0-.275-.205-.15-.359l6.85-13.385L11.5 14.974c-.15-.205 0-.359.15-.359h4.3a.393.393 0 01.45.282 540.897 540.897 0 014.675 10.282h.05c1.45-3.385 3.05-6.9 4.6-10.256.125-.205.2-.333.45-.333H30.2c.2 0 .275.154.15.359zm8.225 4.179c0-5.974 3.875-10.641 10.025-10.641a10.811 10.811 0 011.3.051v-6.794a.254.254 0 01.25-.256h3.95c.2 0 .25.077.25.205v23.538a18.727 18.727 0 00.125 2.513c0 .154-.05.205-.2.282a14.582 14.582 0 01-6.4 1.487c-5.425.026-9.3-3.41-9.3-10.385zm11.325-6.564a3.7 3.7 0 00-1.45-.256c-3.15 0-5.35 2.487-5.35 6.615 0 4.718 2.25 6.615 5.075 6.615a4.61 4.61 0 001.725-.282V25.692z" fill="#fff"/></svg>